<?xml version="1.0" encoding="UTF-8"?><svg id="b" xmlns="http://www.w3.org/2000/svg" viewBox="0 0 195.61 321.03"><g id="c"><rect width="195.61" height="321.03" rx="12" ry="12" style="fill:#262321;"/><path d="m93.95,172.96c-.64,0-1.26-.22-1.76-.62-2.2-1.75-6.31-5.07-9.06-7.59-1.27-1.16-1.44-3.06-.39-4.41,1.68-2.18,4.98-6.38,8.44-10.29-.05-.84-.53-1.46-1.24-2.27l-.18-.2c-2.05-2.38-4.13-4.74-6.21-7.09-1.79-2.03-3.58-4.05-5.36-6.1-1.15-1.32-2.22-2.73-3.25-4.09l-.88-1.15c-.24-.27-.37-.62-.47-.9-.01-.03-.02-.06-.03-.09-.23-.29-.46-.59-.62-.96l-2.4-3.44,6.28-9.46,3.86-6.44h1.58l.29.28c.1.1.2.2.32.28l.1.07.08.09c.06.06.12.13.18.19l.07.07,2.71,3.84c.56.78,1.13,1.57,1.7,2.35.68.94,1.36,1.88,2.03,2.82.45.61.88,1.25,1.31,1.88l.61.9c1.3,1.61,2.61,3.23,3.91,4.83l5.94,8.23h.02c.19.22.38.45.58.68.46.55.92,1.1,1.34,1.67.3.41,1.54,1.91,2.97,3.64,4.64,5.62,7.12,8.69,7.61,9.6.55.86.72,1.43.58,1.94-.26.96-3.18,4.46-17.4,19.55l-1.23,1.3c-.53.57-1.29.89-2.06.89Z" style="fill:#a8a8a8;"/><path d="m73.81,126.7c.14.34.37.63.59.91h0s.01,0,.02.02c.13.31.21.66.43.91,1.35,1.75,2.65,3.53,4.09,5.19,3.83,4.42,7.75,8.76,11.57,13.19.06.07.12.13.18.2.8.92,1.58,1.86,1.48,3.31-3.51,3.95-6.89,8.24-8.65,10.52-.72.94-.6,2.26.28,3.06,2.77,2.53,6.91,5.88,9.01,7.55.75.59,1.82.52,2.47-.18,4.12-4.38,18.02-19.04,18.39-20.42.06-.23-.16-.69-.48-1.18-.62-1.29-9.56-11.85-10.52-13.14-.6-.8-1.26-1.56-1.89-2.33,0,.04.02.08.03.12-.02-.04-.04-.07-.06-.11-1.98-2.75-3.96-5.49-5.94-8.23-1.35-1.66-2.7-3.34-4.05-5.01,0-.01,0-.02,0-.04-.59-.87-1.17-1.76-1.81-2.62-1.23-1.73-2.49-3.45-3.73-5.17-.89-1.25-1.77-2.51-2.66-3.75-.09-.08-.16-.16-.24-.25-.17-.11-.31-.25-.46-.39h-.61c-1.17,1.94-2.28,3.8-3.39,5.65,0,0,.01,0,.02,0-2,3.02-4.02,6.05-6.12,9.22.73,1.06,1.4,2.01,2.07,2.97Zm30.15,14.75s-.02,0-.03,0c0-.02,0-.05,0-.07,0,.02.02.05.03.07Z" style="fill:#353431;"/><path d="m122.56,136.53c-1.21,0-9.26-9.13-10.07-10.11l-.02-.02c-1-1.16-2.16-2.59-3.27-3.97-1.11-1.37-2.25-2.78-3.23-3.92-.82-1-2.31-2.79-3.83-4.6-1.66-1.98-3.35-4-4.22-5.07-1.34-1.76-2.05-2.7-2.41-3.26l-.04.03-6.82-8.86.29-.56c.07-.13.15-.27.25-.4,2.56-3.67,5.3-7.26,7.95-10.73.32-.42.91-1.19,2.01-1.21h.23s.21.09.21.09c.74.35,1.12.95,1.42,1.43.08.14.17.27.26.4l.03.04.03.05c.12.19,1.72,2.39,3.12,4.33,1.33,1.84,2.7,3.73,3.27,4.54.3.42.83,1.4,1.44,2.54l.03.05c.25.2.53.5.9.89l.06.06.05.07c.5.75.95,1.5,1.4,2.24.5.83.98,1.62,1.52,2.42,1.82,2.7,3.65,5.4,5.47,8.08.13.19.28.39.43.58.13.17.26.34.38.51l.83,1.06c.7.89,1.42,1.81,2.1,2.76,1.01,1.4,1.99,2.82,2.96,4.24l1.31,1.89.04.12c.04.1.25.58.35.79l.05.05v.04s1.16,1.3,1.16,1.3c.52.59,1.05,1.19,1.6,1.81.42.47.33,1.39.07,1.76l-.48.68c-.48.67-.91,1.28-1.37,1.86-.62.79-1.41,1.71-2.17,2.59-.89,1.04-1.82,2.12-2.5,3.02l-.3.4h-.5Z" style="fill:#a8a8a8;"/><path d="m100.48,86.36c-.4-.53-.65-1.22-1.3-1.52,0,0,0,0,0,0-.6,0-.93.41-1.23.81-2.69,3.53-5.39,7.05-7.93,10.69-.07.1-.13.19-.18.28l6.43,8.36c-.44-.57,2.43,3.21,2.43,3.21,1.66,2.05,6.35,7.61,8.03,9.65,1.99,2.3,4.52,5.59,6.5,7.89,0,0,0,0,0,0,2.07,2.72,9.21,9.95,9.33,9.78,1.29-1.7,3.36-3.95,4.68-5.63.6-.76,1.14-1.56,1.82-2.5.03-.04.06-.44,0-.52-.99-1.13-1.93-2.18-2.85-3.24h0s0,0,0,0c-.07-.07-.46-.98-.49-1.05-1.39-2-2.77-4.03-4.19-6.02-.94-1.3-1.94-2.55-2.92-3.82-.27-.38-.56-.73-.83-1.12-1.83-2.69-3.66-5.38-5.48-8.09-1.04-1.55-1.89-3.1-2.92-4.67-.35-.38-.94-.9-.94-.9,0,0,0,0,0,0-.62-1.15-1.23-2.28-1.51-2.68-1.25-1.76-6.3-8.7-6.44-8.93Z" style="fill:#353431;"/><path d="m140.72,122.2h-.05s-.24-.01-.24-.01l-.53-.3-.14-.14c-.92-1.06-1.65-2.23-2.35-3.37-.51-.82-.98-1.59-1.53-2.32-.59-.79-1.17-1.59-1.75-2.39-.44-.61-.89-1.22-1.34-1.83l-.55-.78c-.42-.59-.83-1.18-1.23-1.78-1.17-1.76-2.32-3.52-3.48-5.29l-.36-.55-.09-.11-2.55-3.82-.71-.95c-1.77-2.01-3.42-4.25-4.85-6.61-.67-1.1-1.33-2.16-2.09-3.14l-.17-.2c-.32-.39-.76-.93-.88-1.65-1.16-1.23-2.12-2.6-3.06-3.93-.31-.44-.62-.88-.94-1.32-1.51-2.07-2.93-4.23-4.31-6.33l-.76-1.16c-2.46-3.7-7.94-11.55-8.89-12.92-.7.92-7.39,9.71-9.48,12.6-.95,1.61-4.37,5.64-5.01,6.38-.3.49-.72,1.08-1.13,1.64-.4.56-.79,1.11-1.07,1.57l-.14.23-.09.05c-.98,1.21-8.15,11.12-8.52,11.69l-.1.15-.02.02-2.35,3.44-.25.23c-.9,1.76-2.06,3.41-3.55,5.02-.06.2-.16.4-.31.6-1.09,1.44-2.17,2.95-3.21,4.41-1.61,2.25-3.27,4.57-5.05,6.77-.2.24-.39.49-.58.73-.64.82-1.3,1.67-2.15,2.4-.2.17-.39.32-.57.44l-.29.19-.36-.03h-.34l-10.85-10.85-.12-.2-.05-.13c-.59-1.81-.45-3.73.38-5.27,1.85-3.42,3.53-5.91,5.45-8.05.16-.48.49-.75.71-.9.62-.76,1.24-1.52,1.85-2.28l.82-1.02.08-.12c.23-.32.67-.86,1.35-1.67,1.37-1.64,3.43-4.11,5.19-6.6l.08-.13c2.17-3.17,8.65-12.64,8.65-12.64l.3-.42c.42-.59.85-1.18,1.28-1.75.5-.65.98-1.31,1.47-1.97.54-.73,1.08-1.47,1.63-2.18,1.4-2.02,16.7-22.25,23.27-30.93.56-.74,1.42-1.17,2.35-1.17s1.81.44,2.37,1.2c11.01,15.03,32.11,43.84,33.2,45.32.09.12.16.23.24.35l5.48,6.47c1.63,1.99,2.92,4.23,3.97,6.21.4.22.65.55.82.78l.08.11c.61.76,4.92,6.29,6.44,8.48l.24.36c1.27,1.88,1.49,2.17,1.52,2.2l.08.1.31.48c.22.17.52.45.65.9.8.98,1.18,1.99,1.16,3.08,0,.26,0,.54,0,.82v.11c-.06.74-.29,1.46-.7,2.18l-.07.12-11.23,11.23-.11.04-.15.08h-.05s-.09.05-.09.05l-.25.04h-.06s-.06,0-.06,0h-.23Z" style="fill:#a8a8a8;"/><path d="m152.7,107.53c.02-1.02-.43-1.86-1.09-2.61-.03-.04-.03-.09-.03-.14-.04-.24-.23-.38-.42-.5-.14-.21-.28-.43-.42-.64-.14-.15-1.14-1.63-1.6-2.31-.04-.06-.08-.12-.12-.18-.06-.09-.1-.15-.1-.15,0,0,0,0,0,0-1.49-2.15-5.83-7.71-6.4-8.43-.23-.29-.44-.64-.82-.7-1.18-2.24-2.44-4.44-4.02-6.37l-5.51-6.49s0,0,0,0c-.08-.13-.17-.26-.26-.38-1.23-1.66-26.63-36.35-33.21-45.32-.77-1.05-2.33-1.06-3.12-.02-5.29,6.98-22.15,29.26-23.26,30.91,0,0,0,0,0,.01-1.06,1.36-2.06,2.8-3.11,4.17-.53.7-1.04,1.42-1.56,2.14,0,0-6.48,9.47-8.65,12.64-.04.05-.07.11-.1.16,0,0,0,0,0,0-2.63,3.7-5.93,7.41-6.53,8.25-.04.06-.09.13-.13.19-.92,1.14-1.84,2.29-2.78,3.43-.2.11-.37.25-.44.49,0,.05,0,.1-.04.14-2.2,2.42-3.93,5.18-5.47,8.03-.73,1.35-.79,3.01-.31,4.48,0,0,0,.01.01.02l10.47,10.47s.01,0,.02,0c.15-.1.31-.22.47-.36,1.01-.88,1.77-1.97,2.61-3,2.91-3.6,5.46-7.46,8.24-11.15.11-.14.17-.29.15-.44,1.46-1.54,2.7-3.22,3.66-5.11l.02-.05c.11-.1.21-.2.32-.3.79-1.16,1.59-2.32,2.38-3.48,0,0,.01,0,.02,0,.23-.36,8.5-11.81,8.74-11.94.58-.94,1.64-2.3,2.22-3.24,0,0-.01,0-.02.01,1.18-1.37,4.19-4.96,5.05-6.41,0,0,0,0,0-.02,2.23-3.07,9.56-12.7,9.56-12.7.32-.41,1.03-.42,1.41-.08,0,0,6.33,9.04,9.05,13.14,1.65,2.5,3.28,5.02,5.05,7.45,1.29,1.76,2.46,3.62,3.97,5.21.06.06.13.09.2.13-.08.73.46,1.24.85,1.74.8,1.02,1.49,2.13,2.16,3.24,1.41,2.32,3.01,4.5,4.8,6.54.22.3.44.59.66.88,0,0,.01,0,.02.02.87,1.3,1.74,2.6,2.61,3.9,0,0,.02.02.05.06,1.29,1.97,2.57,3.94,3.88,5.9.56.86,1.16,1.68,1.75,2.52,1.03,1.4,2.05,2.82,3.09,4.22,1.35,1.82,2.34,3.91,3.83,5.63.06.03.11.07.17.1.07,0,.14.02.2.03.03,0,.05,0,.08-.01.01,0,.03,0,.04,0,.02,0,.04,0,.06,0,0,0,0,0,0,0,0,0,0,0,0,0,0,0,0,0,0,0,0,0,0,0-.01,0,0,0,.01,0,.02,0,0,0,.01,0,.02,0,.01,0,.03-.02.04-.03l10.98-10.98c.3-.53.52-1.11.57-1.78,0-.29,0-.58,0-.87Z" style="fill:#353431;"/><path d="m108.89,230.89c-9.62-.04-19.57-.09-29.34-.25h-.18c-.33,0-.77,0-1.27.02-.67.01-1.45.03-2.23.03-2.61,0-3.95-.18-4.61-.63-.59-.39-.67-1.22-.5-1.66.15-.39.55-1.36.82-2.01.13-.32.23-.55.25-.61,1.19-3.54,21.35-28.3,21.51-28.41.39-.27,1.01-.44,1.6-.44s1.12.18,1.49.51c.55.51,2.33,2.62,5.67,6.64,4.81,5.78,14.77,17.72,16.65,18.7,4.66-.04,9.48-.12,14.73-.23h.21c.63,0,2.54,0,3.31,1.8.64,1.5,1.16,3.27.1,4.99-.57.92-1.88,1.35-4.11,1.35-.28,0-.52,0-.68-.01h-.15s-7.56-.02-9.85-.02c-2.08,0-4.16,0-6.23.01-1.09,0-2.19.05-3.29.1-1.21.05-2.46.1-3.7.1h-.17Z" style="fill:#a8a8a8;"/><path d="m133.47,223.57c-4.96.1-9.91.18-14.88.23-2.01.02-21.15-24.04-22.87-25.6-.46-.42-1.49-.24-1.85,0-.27.18-20.08,24.82-21.14,27.93-.02.06-.84,2.03-1.07,2.62-.03.09,0,.39.12.47,1.03.69,6.15.38,7.76.41,9.77.16,19.56.2,29.33.24,2.38,0,4.76-.17,7.15-.19,5.36-.03,10.73,0,16.09,0,.39,0,3.43.2,4.09-.86.83-1.35.39-2.78-.17-4.07-.45-1.04-1.48-1.23-2.58-1.2Z" style="fill:#353431;"/><path d="m72.33,64.19c1.11-1.65,17.97-23.92,23.26-30.91.79-1.04,2.35-1.03,3.12.02,6.57,8.97,31.98,43.66,33.21,45.32.62.84,1.06,1.72,1.23,2.73.13.74.24,1.5.39,2.25.13.71.32,1.51-.41,1.99-.73.5-1.19.33-1.71.06-.49-.09-.83-.43-1.21-.24-.59.3-1.22.51-1.88.32-1.37-.41-2.37.25-3.1,1.24-.72.97-1.43,1.69-2.76,1.44-.31-.05-.62.17-.95.21-1.43.21-2.66-.17-3.61-1.27-.3-.34-.58-.68-1-.86-.11-.05-.21-.1-.29-.19-1.51-1.59-2.69-3.45-3.97-5.21-1.77-2.42-3.4-4.94-5.05-7.45-2.72-4.1-9.05-13.14-9.05-13.14-.37-.34-1.09-.32-1.41.08,0,0-7.33,9.63-9.56,12.7,0,0,0,0,0,.02-1.06,1.79-5.37,6.81-5.53,6.96-.09.07-.18.12-.29.16-.76.59-1.45,1.25-2.33,1.71-1.85.95-2.14.88-2.86-.97-.36-.27-.76-.13-1.15-.12-1.09.02-1.45-.41-1.22-1.49.26-1.27.11-2.38-.76-3.43-.67-.81-1.45-1.27-2.48-1.35-.18-.02-.36-.03-.53-.07-2.28-.5-2.69-1.3-1.73-3.44.32-.73.56-1.49.84-2.23.66-1.79,1.92-3.2,2.81-4.86Z" style="fill:#f4f5f5;"/><path d="m102.45,141.8c4.71,0,7.67,5.64,7.83,5.36.12-.03.48.16.84.35.32.16.65.31.68.41.12.19,2.03,2.41,1.86,3.04-.37,1.38-14.27,16.04-18.39,20.42-.65.7-1.73.77-2.47.18-2.1-1.67-6.24-5.02-9.01-7.55-.87-.8-1-2.13-.28-3.06,3.78-4.9,15.11-19.15,18.93-19.15Z" style="fill:#353431;"/><path d="m73.81,126.7c-.66-.95-1.33-1.91-2.07-2.97,2.11-3.18,4.12-6.2,6.12-9.22.7.1.79.2.44.81-.44.76-.85,1.51-1.11,2.35-.39,1.24-.1,1.91,1.11,2.58.43.06.8-.33,1.25-.22.69.12.78.91,1.4,1.3.95-.49,1.78-.29,2.43.68.18.27.59.23.92.25.5.04.95.24,1.16.68.39.84,1.07,1.23,1.89,1.49.74.23,1.34.7,1.91,1.22.98.87,2.1.75,3.26.49.28-1.07-.33-1.75-.77-2.47-.32-.53-.78-.95-1.11-1.47-.25-.39-.56-.83.1-1.17,1.36,1.68,2.71,3.36,4.07,5.03,1.98,2.75,3.96,5.49,5.94,8.23.75,1.36,1.43,2.75,2.35,4.02.66.9,1.03,1.97.82,3.19-.99.58-1.81.14-2.48-.46-.81-.72-1.58-1.19-2.71-.79-.56.2-1.14-.1-1.65-.38-1.1-.58-2.27-.71-3.47-.48-.68.12-1.36.12-2.06.1-.66,0-1.29.09-1.84.52-.75.59-1.44.42-1.95-.33-.41-.6-.96-.8-1.65-.89-1.57-.2-2.77-.86-3.03-2.59-2.92-1.13-4.29-3.82-6.16-5.97-.8-.93-1.88-1.58-2.52-2.66h0c-.23-.27-.45-.56-.59-.9Z" style="fill:#a2a19e;"/><path d="m90.69,147.12c-.06-.07-.12-.13-.18-.2-3.82-4.43-7.73-8.77-11.57-13.19-1.44-1.66-2.75-3.44-4.09-5.19-.22-.25-.3-.62-.44-.94,1.17.88,2.33,1.68,3.19,2.97,1.09,1.63,2.56,3.03,3.96,4.42.45.45,1.22.56,1.92.86.03.32.09.7.13,1.06.83,1.78,2.7,1.27,3.93,1.78.42.59.75,1.05,1.19,1.67,1.55-1.99,3.7-1.04,5.55-1.38.96-.18,2.07.44,3.11.62.64.11,1.34.24,1.93.09.82-.23,1.34.09,1.82.6.66.72,1.43,1.2,2.81,1.16-.46-1.13-.71-2.23-1.29-3.09-.87-1.27-1.58-2.55-1.89-4.06.63.77,1.29,1.52,1.89,2.33.98,1.32,10.28,12.31,10.56,13.22.26.86-1.83,1.62-2.67,2.17-.53.34-4.23,3.39-4.57,3.82-.73.92-3.23,1.78-4.29,1.28-2.75-1.29-5.52-2.55-8.16-4.03-.71-.39-1.49-1.63-1.38-2.34.24-1.63-.61-2.63-1.46-3.61" style="fill:#7c7c77;"/><path d="m89.84,96.63c.05-.09.11-.19.18-.28,2.54-3.64,5.23-7.17,7.93-10.69.31-.4.63-.8,1.23-.81,0,0,0,0,0,0,.66.31.9.99,1.3,1.52.14.24,5.19,7.18,6.44,8.93.57.8,2.46,4.59,3.15,5.51.44.58.78,1.22,1.22,1.77.98,1.18.9,2.53.88,3.9-.02.82-.43,1.37-1.16,1.67-1.29.53-2.54,1.09-3.75,1.86-2.34,1.49-5.98,1.02-7.84-1.16-1.73-2.03-3.14-3.86-3.14-3.86l-6.43-8.36Z" style="fill:#f4f5f5;"/><path d="m137.67,85.5c1.59,1.94,2.86,4.16,4.04,6.41.28,1.02.95,1.86,1.35,2.83.85,2.06-.28,3.96-2.49,4.08-1.14.06-2.09.54-3,1.14-1.4.93-2.92,1.41-4.6,1.37-.44,0-.86.1-1.29.19-1.04.22-1.98.07-2.89-.55-1.13-.77-2.49-1.16-3.51-2.11-.22-.3-.44-.59-.66-.88-1.79-2.04-3.4-4.22-4.8-6.54-.67-1.11-1.36-2.21-2.16-3.24-.44-.56-1.06-1.13-.8-1.99.5.32,1.06.58,1.48.99,1.09,1.05,2.26,1.42,3.74.89.51-.17,1.13-.03,1.87-.03.14-.18.4-.47.6-.8.95-1.58,2.28-2.15,4.04-1.91.55.07,1.62-.09,2.07-.33.11-.06,1.7.29,1.79.44.18.32.93-.64.87-.99-.38-2.18-.27-4.07-1.15-5.47" style="fill:#c7c7c4;"/><path d="m152.7,107.53c.02-1.02-.43-1.86-1.08-2.61-.03-.04-.03-.09-.03-.14-.04-.24-.23-.38-.42-.5-.14-.21-.28-.43-.42-.64-.18-.2-1.83-2.65-1.83-2.65-.21-.21-12.14,7.27-13.87,8.66-.61-.06-1.06-.23-1.22-.57-.59-1.28-1.77-2.08-2.49-3.24-.64-1.02-1.47-1.88-2.23-2.79-.3-.35-.66-.73-1.19-.3,1.3,2,2.6,3.98,3.92,5.97.56.86,1.16,1.68,1.75,2.52,1.03,1.4,2.05,2.82,3.09,4.22,1.35,1.82,2.34,3.91,3.83,5.63.06.03.11.07.17.1.07,0,.14.02.2.03.03,0,.05,0,.08-.01.01,0,.03,0,.04,0,.02,0,.04,0,.06,0,0,0,0,0,0,0,0,0,0,0,0,0,0,0,0,0,0,0,0,0,0,0-.01,0,0,0,.01,0,.02,0,0,0,.01,0,.02,0,.01,0,.03-.02.04-.03l10.98-10.98c.3-.53.52-1.11.57-1.78,0-.29,0-.58,0-.87Z" style="fill:#7c7c77;"/><path d="m149.43,101.82c.31,1.48-1.17,3-2.57,3.52-3.17,1.18-6.11,3.14-9.26,4.35-.71.28-1.29.35-2.06.67-.14.06-.78,0-.92-.11-.5-.38-1.14-.99-1.09-1.04-1.67-2.09-5.62-6.44-5.62-6.44-.87-1.3-1.74-2.61-2.62-3.91,0,0,0,0,0,0,1.28.59,2.63,1.08,3.8,1.84.79.51,1.51.53,2.34.51,2.73-.06,5.17-.95,7.46-2.37.48-.3,1.16-.38,1.75-.4,1.7-.06,2.8-1.72,2.14-3.33-.45-1.09-.91-2.17-1.36-3.25.59-.11.81.35,1.09.71.69.87,6.8,8.69,6.91,9.25Z" style="fill:#a2a19e;"/><path d="m126.21,123.64c.92,1.06,1.86,2.1,2.85,3.24.07.08.03.48,0,.52-.67.94-1.22,1.74-1.82,2.5-1.32,1.68-3.39,3.93-4.68,5.63-.15.2-10.37-10.22-9.88-10.77.33-.11-3.04-4.28.56-4.47,2.74-.14,12.64,3.75,12.96,3.36Z" style="fill:#7c7c77;"/><path d="m67.65,70.5c.52-.72,1.02-1.43,1.56-2.14,1.08-1.4,2.11-2.88,3.19-4.27-.17.58-.15,1.39-.51,1.79-1.65,1.83-2.05,4.26-3.15,6.34-.22.42-.03.6-.03,1.14,2.33.59,4.47.87,5.79,3.65,0,.59.06,1.31.05,2.48,0,.19.6,1.11.8,1.15.78.15,1.82.43,2.34.88.16.14.61.29.76.22.99-.5,1.58-.49,2.52-1.05.35-.2,1.19-.79,1.55-.99-.58.94-1.64,2.3-2.22,3.24-.24.13-8.51,11.59-8.74,11.94-1.41.98-2.92,1.22-4.66,1.31-1.61.08-2.55-.37-3.47-1.51-.44-.55-1.04-1.01-1.61-1.45-.68-.53-1.16-1.19-1.38-2.02-.17-.6-.52-.97-1.12-1.22-1.14-.46-1.58-1.41-1.12-2.55.35-.88.5-1.71.26-2.63-.17-.64.17-1.16.53-1.7,2.16-3.17,8.65-12.63,8.65-12.63Z" style="fill:#c7c7c4;"/><path d="m58.87,85.03c.38.83.15,1.53-.21,2.28-.61,1.27-.26,1.97,1.08,2.43.37.13.88.52.9.81.14,1.72,1.6,2.41,2.58,3.47.45.48.93.94,1.52,1.51.28.27.68.4,1.06.32.28-.05.63-.12,1.03-.19,1.22.6,2.51,0,3.81-.54.29-.12.62-.15.93-.22-.8,1.16-1.59,2.33-2.39,3.49-.1.1-.21.2-.32.3l-.02.05c-.97,1.92-2.24,3.63-3.73,5.19-.24.09-.48.21-.63.41-.82,1.13-1.94,1.41-3.3,1.51-1.29.09-2.37-.16-3.35-.93-.95-.75-1.99-1.32-3.16-1.65-.24-.07-.55-.12-.68-.32-1.17-1.72-3.23-2.5-4.43-4.16-.88-1.22-.23-2.39.33-3.46.7-1.34,1.63-2.55,2.48-3.81.6-.84,3.9-4.55,6.53-8.25,0,0-.31,1.14-.04,1.75Z" style="fill:#a2a19e;"/><path d="m65.06,103.62c-.7.55-1.4,1.09-2.27,1.76-.39,0-1.01-.13-1.53.03-1.39.42-2.4-.25-3.48-.95-.93-.59-1.98-.99-2.94-1.53-.51-.29-1-.65-1.42-1.05-.53-.51-.92-1.45-1.5-1.58-1.43-.3-1.68-1.56-2.64-2.38.45-1,.83-1.95,1.28-2.87.58-1.18,1.21-2.34,1.82-3.5-.97,1.2-1.93,2.41-2.92,3.6-.2.11-.37.25-.44.49,0,.05,0,.1-.04.14-2.2,2.42-3.93,5.18-5.47,8.03-.73,1.35-.79,3.01-.31,4.48,0,0,0,.01.01.02l10.47,10.47s.01,0,.02,0c.15-.1.31-.22.47-.36,1.01-.88,1.77-1.97,2.61-3,2.91-3.6,5.46-7.46,8.24-11.15.17-.22.25-.44.03-.67Z" style="fill:#7c7c77;"/><path d="m92.92,125.04c-.56-1.04-1.31-1.98-1.93-2.99-.18-.28-.17-.67-.24-1.02-.59-.87-1.17-1.76-1.81-2.62-1.23-1.73-2.49-3.45-3.73-5.17-.89-1.25-1.77-2.51-2.66-3.75-.09-.08-.16-.16-.24-.25-.17-.11-.31-.25-.46-.39h-.61c-1.17,1.94-2.28,3.8-3.39,5.65.14.07.28.15.44.24-.34.49-.67.88-.9,1.32-.23.45-.36.95-.54,1.42-.63,1.6,0,2.83,1.72,3.3.28-.18.58-.38.95-.61.45.62.86,1.2,1.27,1.78.61-.3,1.06-.51,1.46-.7.47.57.87,1.04,1.21,1.45.54-.05.89-.09,1.28-.12.17.2.45.36.49.57.21.97.94,1.28,1.76,1.56.57.19,1.23.43,1.59.86.93,1.08,2.07,1.21,3.34,1.14,1.09-.06,1.53-.68,1.01-1.66Z" style="fill:#c7c7c4;"/><path d="m49.48,95.16c-.15.17-.29.32-.44.49.15-.16.29-.32.44-.49Z" style="fill:#353431;"/><path d="m72.74,226.14c1.05-3.11,20.87-27.75,21.14-27.93.36-.25,1.39-.43,1.85,0,1.71,1.57,20.85,25.62,22.87,25.6,4.96-.04,9.91-.12,14.88-.23,1.1-.03,2.14.16,2.58,1.2.55,1.29,1,2.72.17,4.07-.66,1.06-3.69.86-4.09.86-5.36,0-10.73-.03-16.09,0-2.39.02-4.77.2-7.15.19-9.77-.04-19.56-.09-29.33-.24-1.61-.02-6.73.29-7.76-.41-.13-.09-.16-.38-.12-.47.23-.59,1.05-2.56,1.07-2.62Z" style="fill:#353431;"/><path d="m82.51,79.7l-.44.44c.15-.14.29-.29.44-.44Z" style="fill:#c7c7c4;"/><path d="m118.6,112.75c.98,1.27,1.99,2.51,2.92,3.82,1.43,1.99,2.8,4.02,4.19,6.02.03.07.42.98.49,1.05.17.38.36.75.53,1.13.21.46-1.36,2.11-2.27,2.15-2.68.12-5.36.27-8.03.14-.8-.03-1.21.06-1.99-.43-.46-.3-.74-.59-1.21-.88-1.99-2.3-4.52-5.59-6.5-7.89.48-.6,1.06-.3,1.42.03,1.8,1.61,3.77.69,5.63.32,1.35-.26,2.51-1.21,3.89-1.57.88-.23,1.05-.96.77-2.17-.1-.58-.66-1.23.17-1.72Z" style="fill:#a2a19e;"/><path d="m73.81,126.7c.2.3.4.6.6.9-.2-.3-.4-.6-.6-.9Z" style="fill:#7c7c77;"/><path d="m118.6,112.75c.04.4,0,.84.13,1.21.71,1.99.31,2.77-1.71,3.32-.6.17-1.21.45-1.74.79-1.56,1-3.4.77-5.09,1.18-.42.1-.97-.32-1.45-.52-.67-.28-1.34-.58-2.01-.87-1.67-2.05-6.36-7.61-8.03-9.65,0,0-2.87-3.78-2.43-3.21,0,0,2.86,2.44,3.83,3.53,1.3,1.46,2.9,2.21,4.92,1.51.39-.13.87-.03,1.29-.1.34-.05.84-.09.99-.31.73-1.09,1.92-1.21,2.99-1.59,1.44-.53,1.25-.65,1.45-2.17.29-2.17-1.04-3.43-2.05-4.97,0,0-.76-1.86-1.26-2.92,0,0,.59.52.94.9,1.03,1.57,1.88,3.12,2.92,4.67,1.82,2.7,3.65,5.4,5.48,8.09.27.39.56.74.83,1.12Z" style="fill:#c7c7c4;"/><rect x="24.06" y="247.38" width="149.68" height="3.1" rx="1.55" ry="1.55" style="fill:#fff;"/><path d="m72.33,64.19c1.11-1.65,17.97-23.92,23.26-30.91.79-1.04,2.35-1.03,3.12.02,6.57,8.97,31.98,43.66,33.21,45.32.62.84,1.06,1.72,1.23,2.73.13.74.24,1.5.39,2.25.13.71.32,1.51-.41,1.99-.73.5-1.19.33-1.71.06-.49-.09-.83-.43-1.21-.24-.59.3-1.22.51-1.88.32-1.37-.41-2.37.25-3.1,1.24-.72.97-1.43,1.69-2.76,1.44-.31-.05-.62.17-.95.21-1.43.21-2.66-.17-3.61-1.27-.3-.34-.58-.68-1-.86-.11-.05-.21-.1-.29-.19-1.51-1.59-2.69-3.45-3.97-5.21-1.77-2.42-3.4-4.94-5.05-7.45-2.72-4.1-9.05-13.14-9.05-13.14-.37-.34-1.09-.32-1.41.08,0,0-7.33,9.63-9.56,12.7,0,0,0,0,0,.02-1.06,1.79-5.37,6.81-5.53,6.96-.09.07-.18.12-.29.16-.76.59-1.45,1.25-2.33,1.71-1.85.95-2.14.88-2.86-.97-.36-.27-.76-.13-1.15-.12-1.09.02-1.45-.41-1.22-1.49.26-1.27.11-2.38-.76-3.43-.67-.81-1.45-1.27-2.48-1.35-.18-.02-.36-.03-.53-.07-2.28-.5-2.69-1.3-1.73-3.44.32-.73.56-1.49.84-2.23.66-1.79,1.92-3.2,2.81-4.86Z" style="fill:#f4f5f5;"/><path d="m102.45,141.8c4.71,0,7.67,5.64,7.83,5.36.12-.03.48.16.84.35.32.16.65.31.68.41.12.19,2.03,2.41,1.86,3.04-.37,1.38-14.27,16.04-18.39,20.42-.65.7-1.73.77-2.47.18-2.1-1.67-6.24-5.02-9.01-7.55-.87-.8-1-2.13-.28-3.06,3.78-4.9,15.11-19.15,18.93-19.15Z" style="fill:#353431;"/><path d="m73.81,126.7c-.66-.95-1.33-1.91-2.07-2.97,2.11-3.18,4.12-6.2,6.12-9.22.7.1.79.2.44.81-.44.76-.85,1.51-1.11,2.35-.39,1.24-.1,1.91,1.11,2.58.43.06.8-.33,1.25-.22.69.12.78.91,1.4,1.3.95-.49,1.78-.29,2.43.68.18.27.59.23.92.25.5.04.95.24,1.16.68.39.84,1.07,1.23,1.89,1.49.74.23,1.34.7,1.91,1.22.98.87,2.1.75,3.26.49.28-1.07-.33-1.75-.77-2.47-.32-.53-.78-.95-1.11-1.47-.25-.39-.56-.83.1-1.17,1.36,1.68,2.71,3.36,4.07,5.03,1.98,2.75,3.96,5.49,5.94,8.23.75,1.36,1.43,2.75,2.35,4.02.66.9,1.03,1.97.82,3.19-.99.58-1.81.14-2.48-.46-.81-.72-1.58-1.19-2.71-.79-.56.2-1.14-.1-1.65-.38-1.1-.58-2.27-.71-3.47-.48-.68.12-1.36.12-2.06.1-.66,0-1.29.09-1.84.52-.75.59-1.44.42-1.95-.33-.41-.6-.96-.8-1.65-.89-1.57-.2-2.77-.86-3.03-2.59-2.92-1.13-4.29-3.82-6.16-5.97-.8-.93-1.88-1.58-2.52-2.66h0c-.23-.27-.45-.56-.59-.9Z" style="fill:#a2a19e;"/><path d="m90.69,147.12c-.06-.07-.12-.13-.18-.2-3.82-4.43-7.73-8.77-11.57-13.19-1.44-1.66-2.75-3.44-4.09-5.19-.22-.25-.3-.62-.44-.94,1.17.88,2.33,1.68,3.19,2.97,1.09,1.63,2.56,3.03,3.96,4.42.45.45,1.22.56,1.92.86.03.32.09.7.13,1.06.83,1.78,2.7,1.27,3.93,1.78.42.59.75,1.05,1.19,1.67,1.55-1.99,3.7-1.04,5.55-1.38.96-.18,2.07.44,3.11.62.64.11,1.34.24,1.93.09.82-.23,1.34.09,1.82.6.66.72,1.43,1.2,2.81,1.16-.46-1.13-.71-2.23-1.29-3.09-.87-1.27-1.58-2.55-1.89-4.06.63.77,1.29,1.52,1.89,2.33.98,1.32,10.28,12.31,10.56,13.22.26.86-1.83,1.62-2.67,2.17-.53.34-4.23,3.39-4.57,3.82-.73.92-3.23,1.78-4.29,1.28-2.75-1.29-5.52-2.55-8.16-4.03-.71-.39-1.49-1.63-1.38-2.34.24-1.63-.61-2.63-1.46-3.61" style="fill:#7c7c77;"/><path d="m89.84,96.63c.05-.09.11-.19.18-.28,2.54-3.64,5.23-7.17,7.93-10.69.31-.4.63-.8,1.23-.81,0,0,0,0,0,0,.66.31.9.99,1.3,1.52.14.24,5.19,7.18,6.44,8.93.57.8,2.46,4.59,3.15,5.51.44.58.78,1.22,1.22,1.77.98,1.18.9,2.53.88,3.9-.02.82-.43,1.37-1.16,1.67-1.29.53-2.54,1.09-3.75,1.86-2.34,1.49-5.98,1.02-7.84-1.16-1.73-2.03-3.14-3.86-3.14-3.86l-6.43-8.36Z" style="fill:#f4f5f5;"/><path d="m137.67,85.5c1.59,1.94,2.86,4.16,4.04,6.41.28,1.02.95,1.86,1.35,2.83.85,2.06-.28,3.96-2.49,4.08-1.14.06-2.09.54-3,1.14-1.4.93-2.92,1.41-4.6,1.37-.44,0-.86.1-1.29.19-1.04.22-1.98.07-2.89-.55-1.13-.77-2.49-1.16-3.51-2.11-.22-.3-.44-.59-.66-.88-1.79-2.04-3.4-4.22-4.8-6.54-.67-1.11-1.36-2.21-2.16-3.24-.44-.56-1.06-1.13-.8-1.99.5.32,1.06.58,1.48.99,1.09,1.05,2.26,1.42,3.74.89.51-.17,1.13-.03,1.87-.03.14-.18.4-.47.6-.8.95-1.58,2.28-2.15,4.04-1.91.55.07,1.62-.09,2.07-.33.11-.06,1.7.29,1.79.44.18.32.93-.64.87-.99-.38-2.18-.27-4.07-1.15-5.47" style="fill:#c7c7c4;"/><path d="m152.7,107.53c.02-1.02-.43-1.86-1.08-2.61-.03-.04-.03-.09-.03-.14-.04-.24-.23-.38-.42-.5-.14-.21-.28-.43-.42-.64-.18-.2-1.83-2.65-1.83-2.65-.21-.21-12.14,7.27-13.87,8.66-.61-.06-1.06-.23-1.22-.57-.59-1.28-1.77-2.08-2.49-3.24-.64-1.02-1.47-1.88-2.23-2.79-.3-.35-.66-.73-1.19-.3,1.3,2,2.6,3.98,3.92,5.97.56.86,1.16,1.68,1.75,2.52,1.03,1.4,2.05,2.82,3.09,4.22,1.35,1.82,2.34,3.91,3.83,5.63.06.03.11.07.17.1.07,0,.14.02.2.03.03,0,.05,0,.08-.01.01,0,.03,0,.04,0,.02,0,.04,0,.06,0,0,0,0,0,0,0,0,0,0,0,0,0,0,0,0,0,0,0,0,0,0,0-.01,0,0,0,.01,0,.02,0,0,0,.01,0,.02,0,.01,0,.03-.02.04-.03l10.98-10.98c.3-.53.52-1.11.57-1.78,0-.29,0-.58,0-.87Z" style="fill:#7c7c77;"/><path d="m149.43,101.82c.31,1.48-1.17,3-2.57,3.52-3.17,1.18-6.11,3.14-9.26,4.35-.71.28-1.29.35-2.06.67-.14.06-.78,0-.92-.11-.5-.38-1.14-.99-1.09-1.04-1.67-2.09-5.62-6.44-5.62-6.44-.87-1.3-1.74-2.61-2.62-3.91,0,0,0,0,0,0,1.28.59,2.63,1.08,3.8,1.84.79.51,1.51.53,2.34.51,2.73-.06,5.17-.95,7.46-2.37.48-.3,1.16-.38,1.75-.4,1.7-.06,2.8-1.72,2.14-3.33-.45-1.09-.91-2.17-1.36-3.25.59-.11.81.35,1.09.71.69.87,6.8,8.69,6.91,9.25Z" style="fill:#a2a19e;"/><path d="m126.21,123.64c.92,1.06,1.86,2.1,2.85,3.24.07.08.03.48,0,.52-.67.94-1.22,1.74-1.82,2.5-1.32,1.68-3.39,3.93-4.68,5.63-.15.2-10.37-10.22-9.88-10.77.33-.11-3.04-4.28.56-4.47,2.74-.14,12.64,3.75,12.96,3.36Z" style="fill:#7c7c77;"/><path d="m67.65,70.5c.52-.72,1.02-1.43,1.56-2.14,1.08-1.4,2.11-2.88,3.19-4.27-.17.58-.15,1.39-.51,1.79-1.65,1.83-2.05,4.26-3.15,6.34-.22.42-.03.6-.03,1.14,2.33.59,4.47.87,5.79,3.65,0,.59.06,1.31.05,2.48,0,.19.6,1.11.8,1.15.78.15,1.82.43,2.34.88.16.14.61.29.76.22.99-.5,1.58-.49,2.52-1.05.35-.2,1.19-.79,1.55-.99-.58.94-1.64,2.3-2.22,3.24-.24.13-8.51,11.59-8.74,11.94-1.41.98-2.92,1.22-4.66,1.31-1.61.08-2.55-.37-3.47-1.51-.44-.55-1.04-1.01-1.61-1.45-.68-.53-1.16-1.19-1.38-2.02-.17-.6-.52-.97-1.12-1.22-1.14-.46-1.58-1.41-1.12-2.55.35-.88.5-1.71.26-2.63-.17-.64.17-1.16.53-1.7,2.16-3.17,8.65-12.63,8.65-12.63Z" style="fill:#c7c7c4;"/><path d="m58.87,85.03c.38.83.15,1.53-.21,2.28-.61,1.27-.26,1.97,1.08,2.43.37.13.88.52.9.81.14,1.72,1.6,2.41,2.58,3.47.45.48.93.94,1.52,1.51.28.27.68.4,1.06.32.28-.05.63-.12,1.03-.19,1.22.6,2.51,0,3.81-.54.29-.12.62-.15.93-.22-.8,1.16-1.59,2.33-2.39,3.49-.1.1-.21.2-.32.3l-.02.05c-.97,1.92-2.24,3.63-3.73,5.19-.24.09-.48.21-.63.41-.82,1.13-1.94,1.41-3.3,1.51-1.29.09-2.37-.16-3.35-.93-.95-.75-1.99-1.32-3.16-1.65-.24-.07-.55-.12-.68-.32-1.17-1.72-3.23-2.5-4.43-4.16-.88-1.22-.23-2.39.33-3.46.7-1.34,1.63-2.55,2.48-3.81.6-.84,3.9-4.55,6.53-8.25,0,0-.31,1.14-.04,1.75Z" style="fill:#a2a19e;"/><path d="m65.06,103.62c-.7.55-1.4,1.09-2.27,1.76-.39,0-1.01-.13-1.53.03-1.39.42-2.4-.25-3.48-.95-.93-.59-1.98-.99-2.94-1.53-.51-.29-1-.65-1.42-1.05-.53-.51-.92-1.45-1.5-1.58-1.43-.3-1.68-1.56-2.64-2.38.45-1,.83-1.95,1.28-2.87.58-1.18,1.21-2.34,1.82-3.5-.97,1.2-1.93,2.41-2.92,3.6-.2.11-.37.25-.44.49,0,.05,0,.1-.04.14-2.2,2.42-3.93,5.18-5.47,8.03-.73,1.35-.79,3.01-.31,4.48,0,0,0,.01.01.02l10.47,10.47s.01,0,.02,0c.15-.1.31-.22.47-.36,1.01-.88,1.77-1.97,2.61-3,2.91-3.6,5.46-7.46,8.24-11.15.17-.22.25-.44.03-.67Z" style="fill:#7c7c77;"/><path d="m92.92,125.04c-.56-1.04-1.31-1.98-1.93-2.99-.18-.28-.17-.67-.24-1.02-.59-.87-1.17-1.76-1.81-2.62-1.23-1.73-2.49-3.45-3.73-5.17-.89-1.25-1.77-2.51-2.66-3.75-.09-.08-.16-.16-.24-.25-.17-.11-.31-.25-.46-.39h-.61c-1.17,1.94-2.28,3.8-3.39,5.65.14.07.28.15.44.24-.34.49-.67.88-.9,1.32-.23.45-.36.95-.54,1.42-.63,1.6,0,2.83,1.72,3.3.28-.18.58-.38.95-.61.45.62.86,1.2,1.27,1.78.61-.3,1.06-.51,1.46-.7.47.57.87,1.04,1.21,1.45.54-.05.89-.09,1.28-.12.17.2.45.36.49.57.21.97.94,1.28,1.76,1.56.57.19,1.23.43,1.59.86.93,1.08,2.07,1.21,3.34,1.14,1.09-.06,1.53-.68,1.01-1.66Z" style="fill:#c7c7c4;"/><path d="m49.48,95.16c-.15.17-.29.32-.44.49.15-.16.29-.32.44-.49Z" style="fill:#353431;"/><path d="m72.74,226.14c1.05-3.11,20.87-27.75,21.14-27.93.36-.25,1.39-.43,1.85,0,1.71,1.57,20.85,25.62,22.87,25.6,4.96-.04,9.91-.12,14.88-.23,1.1-.03,2.14.16,2.58,1.2.55,1.29,1,2.72.17,4.07-.66,1.06-3.69.86-4.09.86-5.36,0-10.73-.03-16.09,0-2.39.02-4.77.2-7.15.19-9.77-.04-19.56-.09-29.33-.24-1.61-.02-6.73.29-7.76-.41-.13-.09-.16-.38-.12-.47.23-.59,1.05-2.56,1.07-2.62Z" style="fill:#353431;"/><path d="m82.51,79.7l-.44.44c.15-.14.29-.29.44-.44Z" style="fill:#c7c7c4;"/><path d="m118.6,112.75c.98,1.27,1.99,2.51,2.92,3.82,1.43,1.99,2.8,4.02,4.19,6.02.03.07.42.98.49,1.05.17.38.36.75.53,1.13.21.46-1.36,2.11-2.27,2.15-2.68.12-5.36.27-8.03.14-.8-.03-1.21.06-1.99-.43-.46-.3-.74-.59-1.21-.88-1.99-2.3-4.52-5.59-6.5-7.89.48-.6,1.06-.3,1.42.03,1.8,1.61,3.77.69,5.63.32,1.35-.26,2.51-1.21,3.89-1.57.88-.23,1.05-.96.77-2.17-.1-.58-.66-1.23.17-1.72Z" style="fill:#a2a19e;"/><path d="m73.81,126.7c.2.3.4.6.6.9-.2-.3-.4-.6-.6-.9Z" style="fill:#7c7c77;"/><path d="m118.6,112.75c.04.4,0,.84.13,1.21.71,1.99.31,2.77-1.71,3.32-.6.17-1.21.45-1.74.79-1.56,1-3.4.77-5.09,1.18-.42.1-.97-.32-1.45-.52-.67-.28-1.34-.58-2.01-.87-1.67-2.05-6.36-7.61-8.03-9.65,0,0-2.87-3.78-2.43-3.21,0,0,2.86,2.44,3.83,3.53,1.3,1.46,2.9,2.21,4.92,1.51.39-.13.87-.03,1.29-.1.34-.05.84-.09.99-.31.73-1.09,1.92-1.21,2.99-1.59,1.44-.53,1.25-.65,1.45-2.17.29-2.17-1.04-3.43-2.05-4.97,0,0-.76-1.86-1.26-2.92,0,0,.59.52.94.9,1.03,1.57,1.88,3.12,2.92,4.67,1.82,2.7,3.65,5.4,5.48,8.09.27.39.56.74.83,1.12Z" style="fill:#c7c7c4;"/><path d="m44.15,291.9v-14.72c0-4.48,3.46-7.04,10.13-7.04s10.13,2.56,10.13,7.04v2.4h-6.43v-2.68c0-2-1.36-2.76-3.52-2.76s-3.52.76-3.52,2.76v15.32c0,2,1.36,2.72,3.52,2.72s3.52-.72,3.52-2.72v-5.48h-3.4v-4h9.82v9.16c0,4.48-3.46,7.04-10.13,7.04s-10.13-2.56-10.13-7.04Z" style="fill:#fff;"/><path d="m68.8,294.3h6.55v4.24h-6.55v-4.24Z" style="fill:#fff;"/><path d="m86.28,270.54h9.21l7.04,28h-6.8l-1.24-5.56v.08h-7.72l-1.24,5.48h-6.3l7.04-28Zm7.41,18.72l-3.03-13.84h-.12l-2.97,13.84h6.12Z" style="fill:#fff;"/><path d="m106.42,294.3h6.55v4.24h-6.55v-4.24Z" style="fill:#fff;"/><path d="m118.04,270.54h8.53l6.61,16.76h.12v-16.76h6.05v28h-6.98l-8.16-20.44h-.12v20.44h-6.05v-28Z" style="fill:#fff;"/><path d="m144.42,294.3h6.55v4.24h-6.55v-4.24Z" style="fill:#fff;"/></g></svg>